<mxfile host="Electron" agent="Mozilla/5.0 (Windows NT 10.0; Win64; x64) AppleWebKit/537.36 (KHTML, like Gecko) draw.io/26.2.2 Chrome/134.0.6998.178 Electron/35.1.2 Safari/537.36" version="26.2.2">
  <diagram name="Page-1" id="A7-xnCa6GZ77hb_ugSaN">
    <mxGraphModel dx="2143" dy="1790" grid="1" gridSize="10" guides="1" tooltips="1" connect="1" arrows="1" fold="1" page="1" pageScale="1" pageWidth="1169" pageHeight="827" math="0" shadow="0">
      <root>
        <mxCell id="0" />
        <mxCell id="1" parent="0" />
        <mxCell id="PGWeTWr600nqLuUM6eGq-53" value="Dashbord 2" style="text;html=1;strokeColor=none;fillColor=none;align=center;verticalAlign=middle;whiteSpace=wrap;rounded=0;fontSize=20;fontFamily=Architects Daughter;strokeWidth=2;sketch=1;curveFitting=1;jiggle=2;" parent="1" vertex="1">
          <mxGeometry x="1260.87" y="-627" width="305" height="20" as="geometry" />
        </mxCell>
        <mxCell id="RJXuuUYOTGjaXGAXKNSp-31" value="Dashboiard 3" style="text;html=1;strokeColor=none;fillColor=none;align=center;verticalAlign=middle;whiteSpace=wrap;rounded=0;fontSize=20;fontFamily=Architects Daughter;sketch=1;curveFitting=1;jiggle=2;" vertex="1" parent="1">
          <mxGeometry x="160" y="80" width="305" height="20" as="geometry" />
        </mxCell>
        <mxCell id="RJXuuUYOTGjaXGAXKNSp-34" value="" style="rounded=0;whiteSpace=wrap;html=1;fillColor=none;strokeColor=#FF9933;strokeWidth=2;sketch=1;curveFitting=1;jiggle=2;fontFamily=Architects Daughter;fontSource=https%3A%2F%2Ffonts.googleapis.com%2Fcss%3Ffamily%3DArchitects%2BDaughter;fontStyle=1;fontSize=14;" vertex="1" parent="1">
          <mxGeometry x="173.13" y="-600" width="1011.87" height="610" as="geometry" />
        </mxCell>
        <mxCell id="RJXuuUYOTGjaXGAXKNSp-35" value="" style="rounded=0;whiteSpace=wrap;html=1;fillColor=none;strokeColor=#3333FF;strokeWidth=2;sketch=1;curveFitting=1;jiggle=2;fontFamily=Architects Daughter;fontSource=https%3A%2F%2Ffonts.googleapis.com%2Fcss%3Ffamily%3DArchitects%2BDaughter;fontStyle=1;fontSize=14;" vertex="1" parent="1">
          <mxGeometry x="185.25" y="-590" width="988.75" height="70" as="geometry" />
        </mxCell>
        <mxCell id="RJXuuUYOTGjaXGAXKNSp-36" value="" style="rounded=0;whiteSpace=wrap;html=1;fillColor=none;strokeColor=#3333FF;strokeWidth=2;sketch=1;curveFitting=1;jiggle=2;fontFamily=Architects Daughter;fontSource=https%3A%2F%2Ffonts.googleapis.com%2Fcss%3Ffamily%3DArchitects%2BDaughter;fontStyle=1;fontSize=14;" vertex="1" parent="1">
          <mxGeometry x="186" y="-511" width="985" height="510" as="geometry" />
        </mxCell>
        <mxCell id="RJXuuUYOTGjaXGAXKNSp-37" value="" style="rounded=0;whiteSpace=wrap;html=1;fillColor=none;strokeColor=#FF9933;strokeWidth=2;sketch=1;curveFitting=1;jiggle=2;" vertex="1" parent="1">
          <mxGeometry x="200" y="-500" width="85" height="490" as="geometry" />
        </mxCell>
        <mxCell id="RJXuuUYOTGjaXGAXKNSp-38" value="D1" style="rounded=0;whiteSpace=wrap;html=1;fillColor=#f5f5f5;fontColor=#333333;strokeColor=#666666;strokeWidth=2;sketch=1;curveFitting=1;jiggle=2;fontFamily=Architects Daughter;fontSource=https%3A%2F%2Ffonts.googleapis.com%2Fcss%3Ffamily%3DArchitects%2BDaughter;fontSize=16;fontStyle=1" vertex="1" parent="1">
          <mxGeometry x="207.5" y="-490" width="70" height="40" as="geometry" />
        </mxCell>
        <mxCell id="RJXuuUYOTGjaXGAXKNSp-40" value="D2" style="rounded=0;whiteSpace=wrap;html=1;fillColor=#f5f5f5;fontColor=#333333;strokeColor=#666666;strokeWidth=2;sketch=1;curveFitting=1;jiggle=2;fontFamily=Architects Daughter;fontSource=https%3A%2F%2Ffonts.googleapis.com%2Fcss%3Ffamily%3DArchitects%2BDaughter;fontSize=16;fontStyle=1" vertex="1" parent="1">
          <mxGeometry x="208.5" y="-440" width="70" height="40" as="geometry" />
        </mxCell>
        <mxCell id="RJXuuUYOTGjaXGAXKNSp-41" value="D3" style="rounded=0;whiteSpace=wrap;html=1;fillColor=#f5f5f5;fontColor=#333333;strokeColor=#666666;strokeWidth=2;sketch=1;curveFitting=1;jiggle=2;fontFamily=Architects Daughter;fontSource=https%3A%2F%2Ffonts.googleapis.com%2Fcss%3Ffamily%3DArchitects%2BDaughter;fontSize=16;fontStyle=1" vertex="1" parent="1">
          <mxGeometry x="209.5" y="-391" width="70" height="40" as="geometry" />
        </mxCell>
        <mxCell id="RJXuuUYOTGjaXGAXKNSp-42" value="Follow" style="rounded=0;whiteSpace=wrap;html=1;fillColor=#f5f5f5;fontColor=#333333;strokeColor=#666666;strokeWidth=2;sketch=1;curveFitting=1;jiggle=2;fontFamily=Architects Daughter;fontSource=https%3A%2F%2Ffonts.googleapis.com%2Fcss%3Ffamily%3DArchitects%2BDaughter;fontSize=16;fontStyle=1" vertex="1" parent="1">
          <mxGeometry x="207.5" y="-60" width="70" height="40" as="geometry" />
        </mxCell>
        <mxCell id="RJXuuUYOTGjaXGAXKNSp-43" value="Follow" style="rounded=0;whiteSpace=wrap;html=1;fillColor=#f5f5f5;fontColor=#333333;strokeColor=#666666;strokeWidth=2;sketch=1;curveFitting=1;jiggle=2;fontFamily=Architects Daughter;fontSource=https%3A%2F%2Ffonts.googleapis.com%2Fcss%3Ffamily%3DArchitects%2BDaughter;fontSize=16;fontStyle=1" vertex="1" parent="1">
          <mxGeometry x="208" y="-110" width="70" height="40" as="geometry" />
        </mxCell>
        <mxCell id="RJXuuUYOTGjaXGAXKNSp-44" value="Follow" style="rounded=0;whiteSpace=wrap;html=1;fillColor=#f5f5f5;fontColor=#333333;strokeColor=#666666;strokeWidth=2;sketch=1;curveFitting=1;jiggle=2;fontFamily=Architects Daughter;fontSource=https%3A%2F%2Ffonts.googleapis.com%2Fcss%3Ffamily%3DArchitects%2BDaughter;fontSize=16;fontStyle=1" vertex="1" parent="1">
          <mxGeometry x="207.5" y="-160" width="70" height="40" as="geometry" />
        </mxCell>
        <mxCell id="RJXuuUYOTGjaXGAXKNSp-45" value="Import" style="rounded=0;whiteSpace=wrap;html=1;fillColor=#f5f5f5;fontColor=#333333;strokeColor=#666666;strokeWidth=2;sketch=1;curveFitting=1;jiggle=2;fontFamily=Architects Daughter;fontSource=https%3A%2F%2Ffonts.googleapis.com%2Fcss%3Ffamily%3DArchitects%2BDaughter;fontSize=16;fontStyle=1" vertex="1" parent="1">
          <mxGeometry x="207.5" y="-240" width="70" height="40" as="geometry" />
        </mxCell>
        <mxCell id="RJXuuUYOTGjaXGAXKNSp-46" value="Import" style="rounded=0;whiteSpace=wrap;html=1;fillColor=#f5f5f5;fontColor=#333333;strokeColor=#666666;strokeWidth=2;sketch=1;curveFitting=1;jiggle=2;fontFamily=Architects Daughter;fontSource=https%3A%2F%2Ffonts.googleapis.com%2Fcss%3Ffamily%3DArchitects%2BDaughter;fontSize=16;fontStyle=1" vertex="1" parent="1">
          <mxGeometry x="207.5" y="-290" width="70" height="40" as="geometry" />
        </mxCell>
        <mxCell id="RJXuuUYOTGjaXGAXKNSp-47" value="" style="rounded=0;whiteSpace=wrap;html=1;fillColor=none;strokeColor=#FF9933;strokeWidth=2;sketch=1;curveFitting=1;jiggle=2;fontFamily=Architects Daughter;fontSource=https%3A%2F%2Ffonts.googleapis.com%2Fcss%3Ffamily%3DArchitects%2BDaughter;fontStyle=1;fontSize=14;" vertex="1" parent="1">
          <mxGeometry x="302.25" y="-497" width="852.75" height="481" as="geometry" />
        </mxCell>
        <mxCell id="RJXuuUYOTGjaXGAXKNSp-48" value="" style="rounded=0;whiteSpace=wrap;html=1;fillColor=none;strokeColor=#3333FF;strokeWidth=2;sketch=1;curveFitting=1;jiggle=2;fontFamily=Architects Daughter;fontSource=https%3A%2F%2Ffonts.googleapis.com%2Fcss%3Ffamily%3DArchitects%2BDaughter;fontStyle=1;fontSize=14;" vertex="1" parent="1">
          <mxGeometry x="315" y="-480" width="830" height="70" as="geometry" />
        </mxCell>
        <mxCell id="RJXuuUYOTGjaXGAXKNSp-49" value="" style="rounded=0;whiteSpace=wrap;html=1;fillColor=none;strokeColor=#3333FF;strokeWidth=2;sketch=1;curveFitting=1;jiggle=2;fontFamily=Architects Daughter;fontSource=https%3A%2F%2Ffonts.googleapis.com%2Fcss%3Ffamily%3DArchitects%2BDaughter;fontStyle=1;fontSize=14;" vertex="1" parent="1">
          <mxGeometry x="315" y="-400" width="830" height="90" as="geometry" />
        </mxCell>
        <mxCell id="RJXuuUYOTGjaXGAXKNSp-50" value="" style="rounded=0;whiteSpace=wrap;html=1;fillColor=none;strokeColor=#3333FF;strokeWidth=2;sketch=1;curveFitting=1;jiggle=2;fontFamily=Architects Daughter;fontSource=https%3A%2F%2Ffonts.googleapis.com%2Fcss%3Ffamily%3DArchitects%2BDaughter;fontStyle=1;fontSize=14;" vertex="1" parent="1">
          <mxGeometry x="313.62" y="-300" width="830" height="270" as="geometry" />
        </mxCell>
        <mxCell id="RJXuuUYOTGjaXGAXKNSp-51" value="Total&lt;div&gt;Sales&lt;/div&gt;" style="rounded=0;whiteSpace=wrap;html=1;fillColor=#f5f5f5;fontColor=#333333;strokeColor=#666666;strokeWidth=2;sketch=1;curveFitting=1;jiggle=2;fontFamily=Architects Daughter;fontSource=https%3A%2F%2Ffonts.googleapis.com%2Fcss%3Ffamily%3DArchitects%2BDaughter;fontSize=16;fontStyle=1" vertex="1" parent="1">
          <mxGeometry x="335" y="-385" width="120" height="65" as="geometry" />
        </mxCell>
        <mxCell id="RJXuuUYOTGjaXGAXKNSp-52" value="NA&lt;br&gt;&lt;div&gt;Sales&lt;/div&gt;" style="rounded=0;whiteSpace=wrap;html=1;fillColor=#f5f5f5;fontColor=#333333;strokeColor=#666666;strokeWidth=2;sketch=1;curveFitting=1;jiggle=2;fontFamily=Architects Daughter;fontSource=https%3A%2F%2Ffonts.googleapis.com%2Fcss%3Ffamily%3DArchitects%2BDaughter;fontSize=16;fontStyle=1" vertex="1" parent="1">
          <mxGeometry x="478" y="-385.5" width="130" height="65" as="geometry" />
        </mxCell>
        <mxCell id="RJXuuUYOTGjaXGAXKNSp-53" value="JP&lt;br&gt;&lt;div&gt;Sales&lt;/div&gt;" style="rounded=0;whiteSpace=wrap;html=1;fillColor=#f5f5f5;fontColor=#333333;strokeColor=#666666;strokeWidth=2;sketch=1;curveFitting=1;jiggle=2;fontFamily=Architects Daughter;fontSource=https%3A%2F%2Ffonts.googleapis.com%2Fcss%3Ffamily%3DArchitects%2BDaughter;fontSize=16;fontStyle=1" vertex="1" parent="1">
          <mxGeometry x="628" y="-385" width="145" height="65" as="geometry" />
        </mxCell>
        <mxCell id="RJXuuUYOTGjaXGAXKNSp-54" value="Other&lt;br&gt;&lt;div&gt;Sales&lt;/div&gt;" style="rounded=0;whiteSpace=wrap;html=1;fillColor=#f5f5f5;fontColor=#333333;strokeColor=#666666;strokeWidth=2;sketch=1;curveFitting=1;jiggle=2;fontFamily=Architects Daughter;fontSource=https%3A%2F%2Ffonts.googleapis.com%2Fcss%3Ffamily%3DArchitects%2BDaughter;fontSize=16;fontStyle=1" vertex="1" parent="1">
          <mxGeometry x="975" y="-385" width="140" height="65" as="geometry" />
        </mxCell>
        <mxCell id="RJXuuUYOTGjaXGAXKNSp-55" value="PAL&lt;br&gt;&lt;div&gt;Sales&lt;/div&gt;" style="rounded=0;whiteSpace=wrap;html=1;fillColor=#f5f5f5;fontColor=#333333;strokeColor=#666666;strokeWidth=2;sketch=1;curveFitting=1;jiggle=2;fontFamily=Architects Daughter;fontSource=https%3A%2F%2Ffonts.googleapis.com%2Fcss%3Ffamily%3DArchitects%2BDaughter;fontSize=16;fontStyle=1" vertex="1" parent="1">
          <mxGeometry x="799" y="-385" width="150" height="65" as="geometry" />
        </mxCell>
        <mxCell id="RJXuuUYOTGjaXGAXKNSp-56" value="Search Game" style="rounded=0;whiteSpace=wrap;html=1;fillColor=#f5f5f5;fontColor=#333333;strokeColor=#666666;strokeWidth=2;sketch=1;curveFitting=1;jiggle=2;fontFamily=Architects Daughter;fontSource=https%3A%2F%2Ffonts.googleapis.com%2Fcss%3Ffamily%3DArchitects%2BDaughter;fontSize=16;fontStyle=1" vertex="1" parent="1">
          <mxGeometry x="345" y="-470" width="370" height="50" as="geometry" />
        </mxCell>
        <mxCell id="RJXuuUYOTGjaXGAXKNSp-57" value="Select Console" style="rounded=0;whiteSpace=wrap;html=1;fillColor=#f5f5f5;fontColor=#333333;strokeColor=#666666;strokeWidth=2;sketch=1;curveFitting=1;jiggle=2;fontFamily=Architects Daughter;fontSource=https%3A%2F%2Ffonts.googleapis.com%2Fcss%3Ffamily%3DArchitects%2BDaughter;fontSize=16;fontStyle=1" vertex="1" parent="1">
          <mxGeometry x="745" y="-470" width="360" height="50" as="geometry" />
        </mxCell>
        <mxCell id="RJXuuUYOTGjaXGAXKNSp-61" value="Image" style="rounded=0;whiteSpace=wrap;html=1;fillColor=#f5f5f5;fontColor=#333333;strokeColor=#666666;strokeWidth=2;sketch=1;curveFitting=1;jiggle=2;fontFamily=Architects Daughter;fontSource=https%3A%2F%2Ffonts.googleapis.com%2Fcss%3Ffamily%3DArchitects%2BDaughter;fontSize=16;fontStyle=1" vertex="1" parent="1">
          <mxGeometry x="386" y="-290" width="217" height="250" as="geometry" />
        </mxCell>
        <mxCell id="RJXuuUYOTGjaXGAXKNSp-62" value="Details" style="rounded=0;whiteSpace=wrap;html=1;fillColor=#f5f5f5;fontColor=#333333;strokeColor=#666666;strokeWidth=2;sketch=1;curveFitting=1;jiggle=2;fontFamily=Architects Daughter;fontSource=https%3A%2F%2Ffonts.googleapis.com%2Fcss%3Ffamily%3DArchitects%2BDaughter;fontSize=16;fontStyle=1" vertex="1" parent="1">
          <mxGeometry x="621.5" y="-290" width="454.5" height="250" as="geometry" />
        </mxCell>
        <mxCell id="RJXuuUYOTGjaXGAXKNSp-63" value="Logo &amp;amp; Dashboard Name" style="rounded=0;whiteSpace=wrap;html=1;fillColor=#f5f5f5;fontColor=#333333;strokeColor=#666666;strokeWidth=2;sketch=1;curveFitting=1;jiggle=2;fontFamily=Architects Daughter;fontSource=https%3A%2F%2Ffonts.googleapis.com%2Fcss%3Ffamily%3DArchitects%2BDaughter;fontSize=16;fontStyle=1" vertex="1" parent="1">
          <mxGeometry x="195" y="-580" width="280" height="50" as="geometry" />
        </mxCell>
        <mxCell id="RJXuuUYOTGjaXGAXKNSp-64" value="Info" style="rounded=0;whiteSpace=wrap;html=1;fillColor=#f5f5f5;fontColor=#333333;strokeColor=#666666;strokeWidth=2;sketch=1;curveFitting=1;jiggle=2;fontFamily=Architects Daughter;fontSource=https%3A%2F%2Ffonts.googleapis.com%2Fcss%3Ffamily%3DArchitects%2BDaughter;fontSize=16;fontStyle=1" vertex="1" parent="1">
          <mxGeometry x="1085" y="-575" width="70" height="40" as="geometry" />
        </mxCell>
        <mxCell id="RJXuuUYOTGjaXGAXKNSp-98" value="" style="rounded=0;whiteSpace=wrap;html=1;fillColor=none;strokeColor=#FF9933;strokeWidth=2;sketch=1;curveFitting=1;jiggle=2;fontFamily=Architects Daughter;fontSource=https%3A%2F%2Ffonts.googleapis.com%2Fcss%3Ffamily%3DArchitects%2BDaughter;fontStyle=1;fontSize=14;" vertex="1" parent="1">
          <mxGeometry x="173.69" y="110" width="1011.87" height="610" as="geometry" />
        </mxCell>
        <mxCell id="RJXuuUYOTGjaXGAXKNSp-99" value="" style="rounded=0;whiteSpace=wrap;html=1;fillColor=none;strokeColor=#3333FF;strokeWidth=2;sketch=1;curveFitting=1;jiggle=2;fontFamily=Architects Daughter;fontSource=https%3A%2F%2Ffonts.googleapis.com%2Fcss%3Ffamily%3DArchitects%2BDaughter;fontStyle=1;fontSize=14;" vertex="1" parent="1">
          <mxGeometry x="185.81" y="120" width="988.75" height="70" as="geometry" />
        </mxCell>
        <mxCell id="RJXuuUYOTGjaXGAXKNSp-100" value="" style="rounded=0;whiteSpace=wrap;html=1;fillColor=none;strokeColor=#3333FF;strokeWidth=2;sketch=1;curveFitting=1;jiggle=2;fontFamily=Architects Daughter;fontSource=https%3A%2F%2Ffonts.googleapis.com%2Fcss%3Ffamily%3DArchitects%2BDaughter;fontStyle=1;fontSize=14;" vertex="1" parent="1">
          <mxGeometry x="186.56" y="199" width="985" height="510" as="geometry" />
        </mxCell>
        <mxCell id="RJXuuUYOTGjaXGAXKNSp-101" value="" style="rounded=0;whiteSpace=wrap;html=1;fillColor=none;strokeColor=#FF9933;strokeWidth=2;sketch=1;curveFitting=1;jiggle=2;" vertex="1" parent="1">
          <mxGeometry x="200.56" y="210" width="85" height="490" as="geometry" />
        </mxCell>
        <mxCell id="RJXuuUYOTGjaXGAXKNSp-102" value="D1" style="rounded=0;whiteSpace=wrap;html=1;fillColor=#f5f5f5;fontColor=#333333;strokeColor=#666666;strokeWidth=2;sketch=1;curveFitting=1;jiggle=2;fontFamily=Architects Daughter;fontSource=https%3A%2F%2Ffonts.googleapis.com%2Fcss%3Ffamily%3DArchitects%2BDaughter;fontSize=16;fontStyle=1" vertex="1" parent="1">
          <mxGeometry x="208.06" y="220" width="70" height="40" as="geometry" />
        </mxCell>
        <mxCell id="RJXuuUYOTGjaXGAXKNSp-103" value="D2" style="rounded=0;whiteSpace=wrap;html=1;fillColor=#f5f5f5;fontColor=#333333;strokeColor=#666666;strokeWidth=2;sketch=1;curveFitting=1;jiggle=2;fontFamily=Architects Daughter;fontSource=https%3A%2F%2Ffonts.googleapis.com%2Fcss%3Ffamily%3DArchitects%2BDaughter;fontSize=16;fontStyle=1" vertex="1" parent="1">
          <mxGeometry x="209.06" y="270" width="70" height="40" as="geometry" />
        </mxCell>
        <mxCell id="RJXuuUYOTGjaXGAXKNSp-104" value="D3" style="rounded=0;whiteSpace=wrap;html=1;fillColor=#f5f5f5;fontColor=#333333;strokeColor=#666666;strokeWidth=2;sketch=1;curveFitting=1;jiggle=2;fontFamily=Architects Daughter;fontSource=https%3A%2F%2Ffonts.googleapis.com%2Fcss%3Ffamily%3DArchitects%2BDaughter;fontSize=16;fontStyle=1" vertex="1" parent="1">
          <mxGeometry x="210.06" y="319" width="70" height="40" as="geometry" />
        </mxCell>
        <mxCell id="RJXuuUYOTGjaXGAXKNSp-105" value="Follow" style="rounded=0;whiteSpace=wrap;html=1;fillColor=#f5f5f5;fontColor=#333333;strokeColor=#666666;strokeWidth=2;sketch=1;curveFitting=1;jiggle=2;fontFamily=Architects Daughter;fontSource=https%3A%2F%2Ffonts.googleapis.com%2Fcss%3Ffamily%3DArchitects%2BDaughter;fontSize=16;fontStyle=1" vertex="1" parent="1">
          <mxGeometry x="208.06" y="650" width="70" height="40" as="geometry" />
        </mxCell>
        <mxCell id="RJXuuUYOTGjaXGAXKNSp-106" value="Follow" style="rounded=0;whiteSpace=wrap;html=1;fillColor=#f5f5f5;fontColor=#333333;strokeColor=#666666;strokeWidth=2;sketch=1;curveFitting=1;jiggle=2;fontFamily=Architects Daughter;fontSource=https%3A%2F%2Ffonts.googleapis.com%2Fcss%3Ffamily%3DArchitects%2BDaughter;fontSize=16;fontStyle=1" vertex="1" parent="1">
          <mxGeometry x="208.56" y="600" width="70" height="40" as="geometry" />
        </mxCell>
        <mxCell id="RJXuuUYOTGjaXGAXKNSp-107" value="Follow" style="rounded=0;whiteSpace=wrap;html=1;fillColor=#f5f5f5;fontColor=#333333;strokeColor=#666666;strokeWidth=2;sketch=1;curveFitting=1;jiggle=2;fontFamily=Architects Daughter;fontSource=https%3A%2F%2Ffonts.googleapis.com%2Fcss%3Ffamily%3DArchitects%2BDaughter;fontSize=16;fontStyle=1" vertex="1" parent="1">
          <mxGeometry x="208.06" y="550" width="70" height="40" as="geometry" />
        </mxCell>
        <mxCell id="RJXuuUYOTGjaXGAXKNSp-108" value="Import" style="rounded=0;whiteSpace=wrap;html=1;fillColor=#f5f5f5;fontColor=#333333;strokeColor=#666666;strokeWidth=2;sketch=1;curveFitting=1;jiggle=2;fontFamily=Architects Daughter;fontSource=https%3A%2F%2Ffonts.googleapis.com%2Fcss%3Ffamily%3DArchitects%2BDaughter;fontSize=16;fontStyle=1" vertex="1" parent="1">
          <mxGeometry x="208.06" y="470" width="70" height="40" as="geometry" />
        </mxCell>
        <mxCell id="RJXuuUYOTGjaXGAXKNSp-109" value="Import" style="rounded=0;whiteSpace=wrap;html=1;fillColor=#f5f5f5;fontColor=#333333;strokeColor=#666666;strokeWidth=2;sketch=1;curveFitting=1;jiggle=2;fontFamily=Architects Daughter;fontSource=https%3A%2F%2Ffonts.googleapis.com%2Fcss%3Ffamily%3DArchitects%2BDaughter;fontSize=16;fontStyle=1" vertex="1" parent="1">
          <mxGeometry x="208.06" y="420" width="70" height="40" as="geometry" />
        </mxCell>
        <mxCell id="RJXuuUYOTGjaXGAXKNSp-123" value="Logo &amp;amp; Dashboard Name" style="rounded=0;whiteSpace=wrap;html=1;fillColor=#f5f5f5;fontColor=#333333;strokeColor=#666666;strokeWidth=2;sketch=1;curveFitting=1;jiggle=2;fontFamily=Architects Daughter;fontSource=https%3A%2F%2Ffonts.googleapis.com%2Fcss%3Ffamily%3DArchitects%2BDaughter;fontSize=16;fontStyle=1" vertex="1" parent="1">
          <mxGeometry x="195.56" y="130" width="280" height="50" as="geometry" />
        </mxCell>
        <mxCell id="RJXuuUYOTGjaXGAXKNSp-124" value="Info" style="rounded=0;whiteSpace=wrap;html=1;fillColor=#f5f5f5;fontColor=#333333;strokeColor=#666666;strokeWidth=2;sketch=1;curveFitting=1;jiggle=2;fontFamily=Architects Daughter;fontSource=https%3A%2F%2Ffonts.googleapis.com%2Fcss%3Ffamily%3DArchitects%2BDaughter;fontSize=16;fontStyle=1" vertex="1" parent="1">
          <mxGeometry x="1085.56" y="135" width="70" height="40" as="geometry" />
        </mxCell>
        <mxCell id="RJXuuUYOTGjaXGAXKNSp-126" value="" style="rounded=0;whiteSpace=wrap;html=1;fillColor=none;strokeColor=#FF9933;strokeWidth=2;sketch=1;curveFitting=1;jiggle=2;fontFamily=Architects Daughter;fontSource=https%3A%2F%2Ffonts.googleapis.com%2Fcss%3Ffamily%3DArchitects%2BDaughter;fontStyle=1;fontSize=14;" vertex="1" parent="1">
          <mxGeometry x="302.25" y="210" width="388.75" height="490" as="geometry" />
        </mxCell>
        <mxCell id="RJXuuUYOTGjaXGAXKNSp-127" value="" style="rounded=0;whiteSpace=wrap;html=1;fillColor=none;strokeColor=#FF9933;strokeWidth=2;sketch=1;curveFitting=1;jiggle=2;fontFamily=Architects Daughter;fontSource=https%3A%2F%2Ffonts.googleapis.com%2Fcss%3Ffamily%3DArchitects%2BDaughter;fontStyle=1;fontSize=14;" vertex="1" parent="1">
          <mxGeometry x="707" y="209" width="450" height="490" as="geometry" />
        </mxCell>
        <mxCell id="RJXuuUYOTGjaXGAXKNSp-128" value="" style="rounded=0;whiteSpace=wrap;html=1;fillColor=none;strokeColor=#3333FF;strokeWidth=2;sketch=1;curveFitting=1;jiggle=2;fontFamily=Architects Daughter;fontSource=https%3A%2F%2Ffonts.googleapis.com%2Fcss%3Ffamily%3DArchitects%2BDaughter;fontStyle=1;fontSize=14;" vertex="1" parent="1">
          <mxGeometry x="313.62" y="220" width="361.38" height="80" as="geometry" />
        </mxCell>
        <mxCell id="RJXuuUYOTGjaXGAXKNSp-129" value="" style="rounded=0;whiteSpace=wrap;html=1;fillColor=none;strokeColor=#3333FF;strokeWidth=2;sketch=1;curveFitting=1;jiggle=2;fontFamily=Architects Daughter;fontSource=https%3A%2F%2Ffonts.googleapis.com%2Fcss%3Ffamily%3DArchitects%2BDaughter;fontStyle=1;fontSize=14;" vertex="1" parent="1">
          <mxGeometry x="313.62" y="320" width="361.38" height="180" as="geometry" />
        </mxCell>
        <mxCell id="RJXuuUYOTGjaXGAXKNSp-130" value="Games Per Genre By Pub/Dev" style="rounded=0;whiteSpace=wrap;html=1;fillColor=#f5f5f5;fontColor=#333333;strokeColor=#666666;strokeWidth=2;sketch=1;curveFitting=1;jiggle=2;fontFamily=Architects Daughter;fontSource=https%3A%2F%2Ffonts.googleapis.com%2Fcss%3Ffamily%3DArchitects%2BDaughter;fontSize=16;fontStyle=1" vertex="1" parent="1">
          <mxGeometry x="315" y="510" width="360" height="180" as="geometry" />
        </mxCell>
        <mxCell id="RJXuuUYOTGjaXGAXKNSp-131" value="KPI - 1" style="rounded=0;whiteSpace=wrap;html=1;fillColor=#f5f5f5;fontColor=#333333;strokeColor=#666666;strokeWidth=2;sketch=1;curveFitting=1;jiggle=2;fontFamily=Architects Daughter;fontSource=https%3A%2F%2Ffonts.googleapis.com%2Fcss%3Ffamily%3DArchitects%2BDaughter;fontSize=16;fontStyle=1" vertex="1" parent="1">
          <mxGeometry x="332" y="228" width="140" height="65" as="geometry" />
        </mxCell>
        <mxCell id="RJXuuUYOTGjaXGAXKNSp-132" value="KPI - 2" style="rounded=0;whiteSpace=wrap;html=1;fillColor=#f5f5f5;fontColor=#333333;strokeColor=#666666;strokeWidth=2;sketch=1;curveFitting=1;jiggle=2;fontFamily=Architects Daughter;fontSource=https%3A%2F%2Ffonts.googleapis.com%2Fcss%3Ffamily%3DArchitects%2BDaughter;fontSize=16;fontStyle=1" vertex="1" parent="1">
          <mxGeometry x="495" y="227.5" width="140" height="65" as="geometry" />
        </mxCell>
        <mxCell id="RJXuuUYOTGjaXGAXKNSp-133" value="Top 10 Pub/Dev with most games" style="rounded=0;whiteSpace=wrap;html=1;fillColor=#f5f5f5;fontColor=#333333;strokeColor=#666666;strokeWidth=2;sketch=1;curveFitting=1;jiggle=2;fontFamily=Architects Daughter;fontSource=https%3A%2F%2Ffonts.googleapis.com%2Fcss%3Ffamily%3DArchitects%2BDaughter;fontSize=16;fontStyle=1" vertex="1" parent="1">
          <mxGeometry x="326" y="330" width="159" height="160" as="geometry" />
        </mxCell>
        <mxCell id="RJXuuUYOTGjaXGAXKNSp-135" value="Games Per Console By Pub/Dev" style="rounded=0;whiteSpace=wrap;html=1;fillColor=#f5f5f5;fontColor=#333333;strokeColor=#666666;strokeWidth=2;sketch=1;curveFitting=1;jiggle=2;fontFamily=Architects Daughter;fontSource=https%3A%2F%2Ffonts.googleapis.com%2Fcss%3Ffamily%3DArchitects%2BDaughter;fontSize=16;fontStyle=1" vertex="1" parent="1">
          <mxGeometry x="505" y="330" width="154" height="160" as="geometry" />
        </mxCell>
        <mxCell id="RJXuuUYOTGjaXGAXKNSp-136" value="" style="rounded=0;whiteSpace=wrap;html=1;fillColor=none;strokeColor=#3333FF;strokeWidth=2;sketch=1;curveFitting=1;jiggle=2;fontFamily=Architects Daughter;fontSource=https%3A%2F%2Ffonts.googleapis.com%2Fcss%3Ffamily%3DArchitects%2BDaughter;fontStyle=1;fontSize=14;" vertex="1" parent="1">
          <mxGeometry x="725" y="220" width="420" height="120" as="geometry" />
        </mxCell>
        <mxCell id="RJXuuUYOTGjaXGAXKNSp-140" value="" style="rounded=0;whiteSpace=wrap;html=1;fillColor=none;strokeColor=#3333FF;strokeWidth=2;sketch=1;curveFitting=1;jiggle=2;fontFamily=Architects Daughter;fontSource=https%3A%2F%2Ffonts.googleapis.com%2Fcss%3Ffamily%3DArchitects%2BDaughter;fontStyle=1;fontSize=14;" vertex="1" parent="1">
          <mxGeometry x="723.62" y="350" width="421.38" height="170" as="geometry" />
        </mxCell>
        <mxCell id="RJXuuUYOTGjaXGAXKNSp-141" value="Top 10 Pub by Sales" style="rounded=0;whiteSpace=wrap;html=1;fillColor=#f5f5f5;fontColor=#333333;strokeColor=#666666;strokeWidth=2;sketch=1;curveFitting=1;jiggle=2;fontFamily=Architects Daughter;fontSource=https%3A%2F%2Ffonts.googleapis.com%2Fcss%3Ffamily%3DArchitects%2BDaughter;fontSize=16;fontStyle=1" vertex="1" parent="1">
          <mxGeometry x="736" y="360" width="189" height="150" as="geometry" />
        </mxCell>
        <mxCell id="RJXuuUYOTGjaXGAXKNSp-142" value="Avg Sales Per Console by Publishers" style="rounded=0;whiteSpace=wrap;html=1;fillColor=#f5f5f5;fontColor=#333333;strokeColor=#666666;strokeWidth=2;sketch=1;curveFitting=1;jiggle=2;fontFamily=Architects Daughter;fontSource=https%3A%2F%2Ffonts.googleapis.com%2Fcss%3Ffamily%3DArchitects%2BDaughter;fontSize=16;fontStyle=1" vertex="1" parent="1">
          <mxGeometry x="945" y="360" width="186" height="150" as="geometry" />
        </mxCell>
        <mxCell id="RJXuuUYOTGjaXGAXKNSp-150" value="" style="edgeStyle=orthogonalEdgeStyle;rounded=0;orthogonalLoop=1;jettySize=auto;html=1;" edge="1" parent="1" source="RJXuuUYOTGjaXGAXKNSp-143" target="RJXuuUYOTGjaXGAXKNSp-130">
          <mxGeometry relative="1" as="geometry" />
        </mxCell>
        <mxCell id="RJXuuUYOTGjaXGAXKNSp-143" value="" style="rounded=0;whiteSpace=wrap;html=1;fillColor=none;strokeColor=#3333FF;strokeWidth=2;sketch=1;curveFitting=1;jiggle=2;fontFamily=Architects Daughter;fontSource=https%3A%2F%2Ffonts.googleapis.com%2Fcss%3Ffamily%3DArchitects%2BDaughter;fontStyle=1;fontSize=14;" vertex="1" parent="1">
          <mxGeometry x="725" y="530" width="421.38" height="160" as="geometry" />
        </mxCell>
        <mxCell id="RJXuuUYOTGjaXGAXKNSp-144" value="Top 10 Dev by Avg Critic Score" style="rounded=0;whiteSpace=wrap;html=1;fillColor=#f5f5f5;fontColor=#333333;strokeColor=#666666;strokeWidth=2;sketch=1;curveFitting=1;jiggle=2;fontFamily=Architects Daughter;fontSource=https%3A%2F%2Ffonts.googleapis.com%2Fcss%3Ffamily%3DArchitects%2BDaughter;fontSize=16;fontStyle=1" vertex="1" parent="1">
          <mxGeometry x="737.38" y="540" width="187.62" height="140" as="geometry" />
        </mxCell>
        <mxCell id="RJXuuUYOTGjaXGAXKNSp-145" value="Critic Score vs Total Sales" style="rounded=0;whiteSpace=wrap;html=1;fillColor=#f5f5f5;fontColor=#333333;strokeColor=#666666;strokeWidth=2;sketch=1;curveFitting=1;jiggle=2;fontFamily=Architects Daughter;fontSource=https%3A%2F%2Ffonts.googleapis.com%2Fcss%3Ffamily%3DArchitects%2BDaughter;fontSize=16;fontStyle=1" vertex="1" parent="1">
          <mxGeometry x="935" y="540" width="197.38" height="140" as="geometry" />
        </mxCell>
        <mxCell id="RJXuuUYOTGjaXGAXKNSp-147" value="Filters" style="rounded=0;whiteSpace=wrap;html=1;fillColor=#f5f5f5;fontColor=#333333;strokeColor=#666666;strokeWidth=2;sketch=1;curveFitting=1;jiggle=2;fontFamily=Architects Daughter;fontSource=https%3A%2F%2Ffonts.googleapis.com%2Fcss%3Ffamily%3DArchitects%2BDaughter;fontSize=16;fontStyle=1" vertex="1" parent="1">
          <mxGeometry x="735" y="227.5" width="150" height="102.5" as="geometry" />
        </mxCell>
        <mxCell id="RJXuuUYOTGjaXGAXKNSp-148" value="Games Through Time" style="rounded=0;whiteSpace=wrap;html=1;fillColor=#f5f5f5;fontColor=#333333;strokeColor=#666666;strokeWidth=2;sketch=1;curveFitting=1;jiggle=2;fontFamily=Architects Daughter;fontSource=https%3A%2F%2Ffonts.googleapis.com%2Fcss%3Ffamily%3DArchitects%2BDaughter;fontSize=16;fontStyle=1" vertex="1" parent="1">
          <mxGeometry x="899.68" y="230" width="235.32" height="100" as="geometry" />
        </mxCell>
        <mxCell id="RJXuuUYOTGjaXGAXKNSp-153" value="" style="rounded=0;whiteSpace=wrap;html=1;fillColor=none;strokeColor=#FF9933;strokeWidth=2;sketch=1;curveFitting=1;jiggle=2;fontFamily=Architects Daughter;fontSource=https%3A%2F%2Ffonts.googleapis.com%2Fcss%3Ffamily%3DArchitects%2BDaughter;fontStyle=1;fontSize=14;" vertex="1" parent="1">
          <mxGeometry x="1264" y="-600" width="1011.87" height="610" as="geometry" />
        </mxCell>
        <mxCell id="RJXuuUYOTGjaXGAXKNSp-154" value="" style="rounded=0;whiteSpace=wrap;html=1;fillColor=none;strokeColor=#3333FF;strokeWidth=2;sketch=1;curveFitting=1;jiggle=2;fontFamily=Architects Daughter;fontSource=https%3A%2F%2Ffonts.googleapis.com%2Fcss%3Ffamily%3DArchitects%2BDaughter;fontStyle=1;fontSize=14;" vertex="1" parent="1">
          <mxGeometry x="1276.12" y="-590" width="988.75" height="70" as="geometry" />
        </mxCell>
        <mxCell id="RJXuuUYOTGjaXGAXKNSp-155" value="" style="rounded=0;whiteSpace=wrap;html=1;fillColor=none;strokeColor=#3333FF;strokeWidth=2;sketch=1;curveFitting=1;jiggle=2;fontFamily=Architects Daughter;fontSource=https%3A%2F%2Ffonts.googleapis.com%2Fcss%3Ffamily%3DArchitects%2BDaughter;fontStyle=1;fontSize=14;" vertex="1" parent="1">
          <mxGeometry x="1276.87" y="-511" width="985" height="510" as="geometry" />
        </mxCell>
        <mxCell id="RJXuuUYOTGjaXGAXKNSp-156" value="" style="rounded=0;whiteSpace=wrap;html=1;fillColor=none;strokeColor=#FF9933;strokeWidth=2;sketch=1;curveFitting=1;jiggle=2;" vertex="1" parent="1">
          <mxGeometry x="1290.87" y="-500" width="85" height="490" as="geometry" />
        </mxCell>
        <mxCell id="RJXuuUYOTGjaXGAXKNSp-157" value="D1" style="rounded=0;whiteSpace=wrap;html=1;fillColor=#f5f5f5;fontColor=#333333;strokeColor=#666666;strokeWidth=2;sketch=1;curveFitting=1;jiggle=2;fontFamily=Architects Daughter;fontSource=https%3A%2F%2Ffonts.googleapis.com%2Fcss%3Ffamily%3DArchitects%2BDaughter;fontSize=16;fontStyle=1" vertex="1" parent="1">
          <mxGeometry x="1298.37" y="-490" width="70" height="40" as="geometry" />
        </mxCell>
        <mxCell id="RJXuuUYOTGjaXGAXKNSp-158" value="D2" style="rounded=0;whiteSpace=wrap;html=1;fillColor=#f5f5f5;fontColor=#333333;strokeColor=#666666;strokeWidth=2;sketch=1;curveFitting=1;jiggle=2;fontFamily=Architects Daughter;fontSource=https%3A%2F%2Ffonts.googleapis.com%2Fcss%3Ffamily%3DArchitects%2BDaughter;fontSize=16;fontStyle=1" vertex="1" parent="1">
          <mxGeometry x="1299.37" y="-440" width="70" height="40" as="geometry" />
        </mxCell>
        <mxCell id="RJXuuUYOTGjaXGAXKNSp-159" value="D3" style="rounded=0;whiteSpace=wrap;html=1;fillColor=#f5f5f5;fontColor=#333333;strokeColor=#666666;strokeWidth=2;sketch=1;curveFitting=1;jiggle=2;fontFamily=Architects Daughter;fontSource=https%3A%2F%2Ffonts.googleapis.com%2Fcss%3Ffamily%3DArchitects%2BDaughter;fontSize=16;fontStyle=1" vertex="1" parent="1">
          <mxGeometry x="1300.37" y="-391" width="70" height="40" as="geometry" />
        </mxCell>
        <mxCell id="RJXuuUYOTGjaXGAXKNSp-160" value="Follow" style="rounded=0;whiteSpace=wrap;html=1;fillColor=#f5f5f5;fontColor=#333333;strokeColor=#666666;strokeWidth=2;sketch=1;curveFitting=1;jiggle=2;fontFamily=Architects Daughter;fontSource=https%3A%2F%2Ffonts.googleapis.com%2Fcss%3Ffamily%3DArchitects%2BDaughter;fontSize=16;fontStyle=1" vertex="1" parent="1">
          <mxGeometry x="1298.37" y="-60" width="70" height="40" as="geometry" />
        </mxCell>
        <mxCell id="RJXuuUYOTGjaXGAXKNSp-161" value="Follow" style="rounded=0;whiteSpace=wrap;html=1;fillColor=#f5f5f5;fontColor=#333333;strokeColor=#666666;strokeWidth=2;sketch=1;curveFitting=1;jiggle=2;fontFamily=Architects Daughter;fontSource=https%3A%2F%2Ffonts.googleapis.com%2Fcss%3Ffamily%3DArchitects%2BDaughter;fontSize=16;fontStyle=1" vertex="1" parent="1">
          <mxGeometry x="1298.87" y="-110" width="70" height="40" as="geometry" />
        </mxCell>
        <mxCell id="RJXuuUYOTGjaXGAXKNSp-162" value="Follow" style="rounded=0;whiteSpace=wrap;html=1;fillColor=#f5f5f5;fontColor=#333333;strokeColor=#666666;strokeWidth=2;sketch=1;curveFitting=1;jiggle=2;fontFamily=Architects Daughter;fontSource=https%3A%2F%2Ffonts.googleapis.com%2Fcss%3Ffamily%3DArchitects%2BDaughter;fontSize=16;fontStyle=1" vertex="1" parent="1">
          <mxGeometry x="1298.37" y="-160" width="70" height="40" as="geometry" />
        </mxCell>
        <mxCell id="RJXuuUYOTGjaXGAXKNSp-163" value="Import" style="rounded=0;whiteSpace=wrap;html=1;fillColor=#f5f5f5;fontColor=#333333;strokeColor=#666666;strokeWidth=2;sketch=1;curveFitting=1;jiggle=2;fontFamily=Architects Daughter;fontSource=https%3A%2F%2Ffonts.googleapis.com%2Fcss%3Ffamily%3DArchitects%2BDaughter;fontSize=16;fontStyle=1" vertex="1" parent="1">
          <mxGeometry x="1298.37" y="-240" width="70" height="40" as="geometry" />
        </mxCell>
        <mxCell id="RJXuuUYOTGjaXGAXKNSp-164" value="Import" style="rounded=0;whiteSpace=wrap;html=1;fillColor=#f5f5f5;fontColor=#333333;strokeColor=#666666;strokeWidth=2;sketch=1;curveFitting=1;jiggle=2;fontFamily=Architects Daughter;fontSource=https%3A%2F%2Ffonts.googleapis.com%2Fcss%3Ffamily%3DArchitects%2BDaughter;fontSize=16;fontStyle=1" vertex="1" parent="1">
          <mxGeometry x="1298.37" y="-290" width="70" height="40" as="geometry" />
        </mxCell>
        <mxCell id="RJXuuUYOTGjaXGAXKNSp-165" value="Logo &amp;amp; Dashboard Name" style="rounded=0;whiteSpace=wrap;html=1;fillColor=#f5f5f5;fontColor=#333333;strokeColor=#666666;strokeWidth=2;sketch=1;curveFitting=1;jiggle=2;fontFamily=Architects Daughter;fontSource=https%3A%2F%2Ffonts.googleapis.com%2Fcss%3Ffamily%3DArchitects%2BDaughter;fontSize=16;fontStyle=1" vertex="1" parent="1">
          <mxGeometry x="1285.87" y="-580" width="280" height="50" as="geometry" />
        </mxCell>
        <mxCell id="RJXuuUYOTGjaXGAXKNSp-166" value="Info" style="rounded=0;whiteSpace=wrap;html=1;fillColor=#f5f5f5;fontColor=#333333;strokeColor=#666666;strokeWidth=2;sketch=1;curveFitting=1;jiggle=2;fontFamily=Architects Daughter;fontSource=https%3A%2F%2Ffonts.googleapis.com%2Fcss%3Ffamily%3DArchitects%2BDaughter;fontSize=16;fontStyle=1" vertex="1" parent="1">
          <mxGeometry x="2175.87" y="-575" width="70" height="40" as="geometry" />
        </mxCell>
        <mxCell id="RJXuuUYOTGjaXGAXKNSp-167" value="" style="rounded=0;whiteSpace=wrap;html=1;fillColor=none;strokeColor=#FF9933;strokeWidth=2;sketch=1;curveFitting=1;jiggle=2;fontFamily=Architects Daughter;fontSource=https%3A%2F%2Ffonts.googleapis.com%2Fcss%3Ffamily%3DArchitects%2BDaughter;fontStyle=1;fontSize=14;" vertex="1" parent="1">
          <mxGeometry x="1392.56" y="-500" width="388.75" height="490" as="geometry" />
        </mxCell>
        <mxCell id="RJXuuUYOTGjaXGAXKNSp-168" value="" style="rounded=0;whiteSpace=wrap;html=1;fillColor=none;strokeColor=#FF9933;strokeWidth=2;sketch=1;curveFitting=1;jiggle=2;fontFamily=Architects Daughter;fontSource=https%3A%2F%2Ffonts.googleapis.com%2Fcss%3Ffamily%3DArchitects%2BDaughter;fontStyle=1;fontSize=14;" vertex="1" parent="1">
          <mxGeometry x="1797.31" y="-501" width="450" height="490" as="geometry" />
        </mxCell>
        <mxCell id="RJXuuUYOTGjaXGAXKNSp-169" value="" style="rounded=0;whiteSpace=wrap;html=1;fillColor=none;strokeColor=#3333FF;strokeWidth=2;sketch=1;curveFitting=1;jiggle=2;fontFamily=Architects Daughter;fontSource=https%3A%2F%2Ffonts.googleapis.com%2Fcss%3Ffamily%3DArchitects%2BDaughter;fontStyle=1;fontSize=14;" vertex="1" parent="1">
          <mxGeometry x="1403.9299999999998" y="-490" width="361.38" height="80" as="geometry" />
        </mxCell>
        <mxCell id="RJXuuUYOTGjaXGAXKNSp-172" value="KPI - 1" style="rounded=0;whiteSpace=wrap;html=1;fillColor=#f5f5f5;fontColor=#333333;strokeColor=#666666;strokeWidth=2;sketch=1;curveFitting=1;jiggle=2;fontFamily=Architects Daughter;fontSource=https%3A%2F%2Ffonts.googleapis.com%2Fcss%3Ffamily%3DArchitects%2BDaughter;fontSize=16;fontStyle=1" vertex="1" parent="1">
          <mxGeometry x="1422.31" y="-482" width="140" height="65" as="geometry" />
        </mxCell>
        <mxCell id="RJXuuUYOTGjaXGAXKNSp-173" value="KPI - 2" style="rounded=0;whiteSpace=wrap;html=1;fillColor=#f5f5f5;fontColor=#333333;strokeColor=#666666;strokeWidth=2;sketch=1;curveFitting=1;jiggle=2;fontFamily=Architects Daughter;fontSource=https%3A%2F%2Ffonts.googleapis.com%2Fcss%3Ffamily%3DArchitects%2BDaughter;fontSize=16;fontStyle=1" vertex="1" parent="1">
          <mxGeometry x="1585.31" y="-482.5" width="140" height="65" as="geometry" />
        </mxCell>
        <mxCell id="RJXuuUYOTGjaXGAXKNSp-176" value="" style="rounded=0;whiteSpace=wrap;html=1;fillColor=none;strokeColor=#3333FF;strokeWidth=2;sketch=1;curveFitting=1;jiggle=2;fontFamily=Architects Daughter;fontSource=https%3A%2F%2Ffonts.googleapis.com%2Fcss%3Ffamily%3DArchitects%2BDaughter;fontStyle=1;fontSize=14;" vertex="1" parent="1">
          <mxGeometry x="1815.31" y="-490" width="420" height="120" as="geometry" />
        </mxCell>
        <mxCell id="RJXuuUYOTGjaXGAXKNSp-184" value="Filters" style="rounded=0;whiteSpace=wrap;html=1;fillColor=#f5f5f5;fontColor=#333333;strokeColor=#666666;strokeWidth=2;sketch=1;curveFitting=1;jiggle=2;fontFamily=Architects Daughter;fontSource=https%3A%2F%2Ffonts.googleapis.com%2Fcss%3Ffamily%3DArchitects%2BDaughter;fontSize=16;fontStyle=1" vertex="1" parent="1">
          <mxGeometry x="1825.31" y="-482.5" width="150" height="102.5" as="geometry" />
        </mxCell>
        <mxCell id="RJXuuUYOTGjaXGAXKNSp-185" value="Games Through Time" style="rounded=0;whiteSpace=wrap;html=1;fillColor=#f5f5f5;fontColor=#333333;strokeColor=#666666;strokeWidth=2;sketch=1;curveFitting=1;jiggle=2;fontFamily=Architects Daughter;fontSource=https%3A%2F%2Ffonts.googleapis.com%2Fcss%3Ffamily%3DArchitects%2BDaughter;fontSize=16;fontStyle=1" vertex="1" parent="1">
          <mxGeometry x="1989.9899999999998" y="-480" width="235.32" height="100" as="geometry" />
        </mxCell>
        <mxCell id="RJXuuUYOTGjaXGAXKNSp-189" value="" style="rounded=0;whiteSpace=wrap;html=1;fillColor=none;strokeColor=#FF9933;strokeWidth=2;sketch=1;curveFitting=1;jiggle=2;fontFamily=Architects Daughter;fontSource=https%3A%2F%2Ffonts.googleapis.com%2Fcss%3Ffamily%3DArchitects%2BDaughter;fontStyle=1;fontSize=14;" vertex="1" parent="1">
          <mxGeometry x="1403.93" y="-400" width="361.07" height="380" as="geometry" />
        </mxCell>
        <mxCell id="RJXuuUYOTGjaXGAXKNSp-190" value="Top 10 Con/Gen with Most Games" style="rounded=0;whiteSpace=wrap;html=1;fillColor=#f5f5f5;fontColor=#333333;strokeColor=#666666;strokeWidth=2;sketch=1;curveFitting=1;jiggle=2;fontFamily=Architects Daughter;fontSource=https%3A%2F%2Ffonts.googleapis.com%2Fcss%3Ffamily%3DArchitects%2BDaughter;fontSize=16;fontStyle=1" vertex="1" parent="1">
          <mxGeometry x="1415" y="-385.5" width="340" height="155.5" as="geometry" />
        </mxCell>
        <mxCell id="RJXuuUYOTGjaXGAXKNSp-191" value="Con/Gen By Gen/Con" style="rounded=0;whiteSpace=wrap;html=1;fillColor=#f5f5f5;fontColor=#333333;strokeColor=#666666;strokeWidth=2;sketch=1;curveFitting=1;jiggle=2;fontFamily=Architects Daughter;fontSource=https%3A%2F%2Ffonts.googleapis.com%2Fcss%3Ffamily%3DArchitects%2BDaughter;fontSize=16;fontStyle=1" vertex="1" parent="1">
          <mxGeometry x="1414.47" y="-217.75" width="340" height="187.75" as="geometry" />
        </mxCell>
        <mxCell id="RJXuuUYOTGjaXGAXKNSp-192" value="" style="rounded=0;whiteSpace=wrap;html=1;fillColor=none;strokeColor=#3333FF;strokeWidth=2;sketch=1;curveFitting=1;jiggle=2;fontFamily=Architects Daughter;fontSource=https%3A%2F%2Ffonts.googleapis.com%2Fcss%3Ffamily%3DArchitects%2BDaughter;fontStyle=1;fontSize=14;" vertex="1" parent="1">
          <mxGeometry x="1815.31" y="-360" width="419.69" height="330" as="geometry" />
        </mxCell>
        <mxCell id="RJXuuUYOTGjaXGAXKNSp-193" value="Top 10 Most Selling Con/Gen" style="rounded=0;whiteSpace=wrap;html=1;fillColor=#f5f5f5;fontColor=#333333;strokeColor=#666666;strokeWidth=2;sketch=1;curveFitting=1;jiggle=2;fontFamily=Architects Daughter;fontSource=https%3A%2F%2Ffonts.googleapis.com%2Fcss%3Ffamily%3DArchitects%2BDaughter;fontSize=16;fontStyle=1" vertex="1" parent="1">
          <mxGeometry x="1825.31" y="-350.25" width="159.69" height="310.25" as="geometry" />
        </mxCell>
        <mxCell id="RJXuuUYOTGjaXGAXKNSp-194" value="" style="rounded=0;whiteSpace=wrap;html=1;fillColor=none;strokeColor=#FF9933;strokeWidth=2;sketch=1;curveFitting=1;jiggle=2;fontFamily=Architects Daughter;fontSource=https%3A%2F%2Ffonts.googleapis.com%2Fcss%3Ffamily%3DArchitects%2BDaughter;fontStyle=1;fontSize=14;" vertex="1" parent="1">
          <mxGeometry x="1995" y="-347.75" width="230" height="307.75" as="geometry" />
        </mxCell>
        <mxCell id="RJXuuUYOTGjaXGAXKNSp-195" value="Avg Sales Per Con/Gen by Gen/Con&amp;nbsp;" style="rounded=0;whiteSpace=wrap;html=1;fillColor=#f5f5f5;fontColor=#333333;strokeColor=#666666;strokeWidth=2;sketch=1;curveFitting=1;jiggle=2;fontFamily=Architects Daughter;fontSource=https%3A%2F%2Ffonts.googleapis.com%2Fcss%3Ffamily%3DArchitects%2BDaughter;fontSize=16;fontStyle=1" vertex="1" parent="1">
          <mxGeometry x="2005" y="-335" width="210" height="135" as="geometry" />
        </mxCell>
        <mxCell id="RJXuuUYOTGjaXGAXKNSp-196" value="Top 10 Con/Gen Avg Sales" style="rounded=0;whiteSpace=wrap;html=1;fillColor=#f5f5f5;fontColor=#333333;strokeColor=#666666;strokeWidth=2;sketch=1;curveFitting=1;jiggle=2;fontFamily=Architects Daughter;fontSource=https%3A%2F%2Ffonts.googleapis.com%2Fcss%3Ffamily%3DArchitects%2BDaughter;fontSize=16;fontStyle=1" vertex="1" parent="1">
          <mxGeometry x="2005" y="-191.37" width="210" height="141.37" as="geometry" />
        </mxCell>
        <mxCell id="RJXuuUYOTGjaXGAXKNSp-201" value="Horizental Contailer" style="rounded=0;whiteSpace=wrap;html=1;fillColor=none;strokeColor=#3333FF;strokeWidth=2;sketch=1;curveFitting=1;jiggle=2;fontFamily=Architects Daughter;fontSource=https%3A%2F%2Ffonts.googleapis.com%2Fcss%3Ffamily%3DArchitects%2BDaughter;fontStyle=1;fontSize=14;" vertex="1" parent="1">
          <mxGeometry x="919.9999999999999" y="-810" width="113.75" height="80" as="geometry" />
        </mxCell>
        <mxCell id="RJXuuUYOTGjaXGAXKNSp-202" value="Vertical&lt;br&gt;Contailer" style="rounded=0;whiteSpace=wrap;html=1;fillColor=none;strokeColor=#FF9933;strokeWidth=2;sketch=1;curveFitting=1;jiggle=2;fontFamily=Architects Daughter;fontSource=https%3A%2F%2Ffonts.googleapis.com%2Fcss%3Ffamily%3DArchitects%2BDaughter;fontStyle=1;fontSize=14;" vertex="1" parent="1">
          <mxGeometry x="1059.9999999999998" y="-810" width="113.75" height="80" as="geometry" />
        </mxCell>
        <mxCell id="RJXuuUYOTGjaXGAXKNSp-203" value="Object" style="rounded=0;whiteSpace=wrap;html=1;fillColor=#f5f5f5;fontColor=#333333;strokeColor=#666666;strokeWidth=2;sketch=1;curveFitting=1;jiggle=2;fontFamily=Architects Daughter;fontSource=https%3A%2F%2Ffonts.googleapis.com%2Fcss%3Ffamily%3DArchitects%2BDaughter;fontSize=16;fontStyle=1" vertex="1" parent="1">
          <mxGeometry x="1203.7499999999998" y="-810" width="120" height="85" as="geometry" />
        </mxCell>
        <mxCell id="RJXuuUYOTGjaXGAXKNSp-204" value="Dashboiard 1" style="text;html=1;strokeColor=none;fillColor=none;align=center;verticalAlign=middle;whiteSpace=wrap;rounded=0;fontSize=20;fontFamily=Architects Daughter;sketch=1;curveFitting=1;jiggle=2;" vertex="1" parent="1">
          <mxGeometry x="173.69" y="-627" width="305" height="20" as="geometry" />
        </mxCell>
      </root>
    </mxGraphModel>
  </diagram>
</mxfile>
